<svg width="48" height="48" viewBox="0 0 48 48" fill="none" xmlns="http://www.w3.org/2000/svg">
<g clip-path="url(#clip0_7193_22305)">
<path d="M29.1086 14.2944C31.3098 11.3487 30.7221 7.19203 27.7961 5.01017C24.8701 2.82831 20.7136 3.44752 18.5124 6.39321L4.91196 24.5937C2.71077 27.5394 3.29837 31.6961 6.22441 33.8779C9.15045 36.0598 13.3069 35.4406 15.5081 32.4949L29.1086 14.2944Z" fill="#00954C"/>
<path d="M32.2581 32.4455C34.4593 35.3912 38.6157 36.0104 41.5418 33.8285C44.4678 31.6467 45.0554 27.49 42.8542 24.5443L29.2538 6.3438C27.0526 3.39812 22.8961 2.77891 19.9701 4.96077C17.044 7.14263 16.4564 11.2993 18.6576 14.245L32.2581 32.4455Z" fill="#074E9F"/>
<path d="M10.3541 44.4862L6.75674 39.0524C6.64529 38.8842 6.50178 38.74 6.33454 38.628C6.16729 38.5161 5.97964 38.4387 5.78247 38.4004H5.74049H5.64157H5.57262H5.41674H5.35079H5.24886H5.20689C5.00972 38.4387 4.82207 38.5161 4.65483 38.628C4.48758 38.74 4.34406 38.8842 4.23261 39.0524L0.635296 44.4862C0.524477 44.6529 0.447347 44.8399 0.408313 45.0367C0.369279 45.2334 0.369103 45.4359 0.407796 45.6327C0.446489 45.8295 0.523293 46.0167 0.633823 46.1835C0.744353 46.3504 0.886446 46.4938 1.05199 46.6054C1.21752 46.717 1.40327 46.7946 1.59862 46.8339C1.79396 46.8732 1.99509 46.8734 2.1905 46.8345C2.38592 46.7955 2.5718 46.7182 2.73753 46.6068C2.90326 46.4955 3.0456 46.3525 3.15642 46.1858L5.49767 42.6599L7.83893 46.1858C8.06317 46.5201 8.40944 46.7518 8.80242 46.8303C9.1954 46.9089 9.60328 46.8281 9.93737 46.6054C10.1029 46.4938 10.245 46.3504 10.3556 46.1836C10.4661 46.0167 10.5429 45.8295 10.5816 45.6327C10.6203 45.4359 10.6201 45.2334 10.5811 45.0367C10.542 44.8399 10.4649 44.6529 10.3541 44.4862Z" fill="#3B3B3C"/>
<path d="M19.912 46.0528C19.8853 46.0016 18.6704 44.2467 17.4377 42.4647C18.5843 40.809 19.6506 39.2678 19.6774 39.2197C19.7338 39.1173 19.8467 38.5364 19.2942 38.5364H17.5387C17.4549 38.5316 17.3714 38.549 17.2963 38.5871C17.2213 38.6251 17.1574 38.6823 17.1109 38.7531C17.1109 38.7531 16.6386 39.4304 15.9881 40.3726L14.8623 38.7531C14.8161 38.6793 14.7513 38.6194 14.6744 38.5796C14.5976 38.5399 14.5117 38.5219 14.4256 38.5273H12.6701C12.1206 38.5273 12.2334 39.1083 12.2899 39.2106C12.3136 39.2588 13.38 40.8 14.5266 42.4556C13.3058 44.2467 12.0879 45.9896 12.0493 46.0528C11.9928 46.1551 11.88 46.7361 12.4325 46.7361H14.188C14.2717 46.7406 14.3551 46.723 14.4301 46.685C14.5051 46.647 14.5691 46.5899 14.6157 46.5194L15.9762 44.5567L17.3367 46.5194C17.3831 46.5902 17.4471 46.6474 17.5221 46.6854C17.5971 46.7234 17.6806 46.7409 17.7644 46.7361H19.5199C20.0695 46.7241 19.9685 46.1431 19.912 46.0528Z" fill="#3B3B3C"/>
<path d="M25.5086 38.2734C23.0239 38.2734 21.3477 40.0293 21.3477 42.6419C21.3477 45.2545 22.9794 46.9892 25.5086 46.9892C28.0379 46.9892 29.6845 45.2424 29.6845 42.6419C29.6845 39.99 28.0469 38.2734 25.5086 38.2734ZM27.1641 42.6419C27.1641 44.9276 25.9188 44.9276 25.5086 44.9276C25.0985 44.9276 23.8769 44.9276 23.8769 42.6419C23.8769 41.0889 24.409 40.3351 25.5086 40.3351C26.6083 40.3351 27.1641 41.0889 27.1641 42.6419Z" fill="#3B3B3C"/>
<path d="M34.8932 38.4004H34.843C32.7742 38.4004 31.0748 39.6828 31.0748 41.9587V46.5796C31.0724 46.6161 31.0774 46.6528 31.0895 46.6873C31.1017 46.7217 31.1207 46.7532 31.1454 46.7798C31.1702 46.8064 31.2 46.8275 31.2331 46.8417C31.2663 46.856 31.3019 46.8631 31.3379 46.8626H33.2589C33.2994 46.8655 33.3401 46.8598 33.3784 46.846C33.4166 46.8322 33.4517 46.8105 33.4814 46.7822C33.5111 46.754 33.5347 46.7198 33.5508 46.6818C33.567 46.6439 33.5752 46.6029 33.5751 46.5615V42.347C33.5751 40.8268 34.444 40.613 34.8637 40.613C35.2834 40.613 36.1523 40.8268 36.1523 42.347V46.5615C36.1521 46.6032 36.1605 46.6444 36.1768 46.6826C36.1931 46.7208 36.217 46.7551 36.247 46.7834C36.277 46.8117 36.3124 46.8333 36.3511 46.847C36.3897 46.8606 36.4307 46.8659 36.4714 46.8626H38.3895C38.4255 46.8631 38.4611 46.856 38.4942 46.8417C38.5274 46.8275 38.5572 46.8064 38.5819 46.7798C38.6067 46.7532 38.6257 46.7217 38.6378 46.6873C38.65 46.6528 38.655 46.6161 38.6526 46.5796V41.9557C38.6614 39.6828 36.9532 38.4004 34.8932 38.4004Z" fill="#3B3B3C"/>
<path d="M40.0539 44.3179C40.0539 44.3179 39.9637 43.9366 40.3006 43.9366H42.1055C42.1682 43.9301 42.2311 43.9464 42.2829 43.9825C42.3347 44.0185 42.3721 44.072 42.3882 44.1333C42.4995 44.6508 42.9056 45.0171 43.79 45.0413C44.6744 45.0655 45.0594 44.8506 45.0594 44.3512C45.0594 44.2241 45.0143 44.0334 44.6323 43.8427C44.154 43.6573 43.6565 43.5263 43.1493 43.4523C41.191 43.0861 40.1983 42.2416 40.1983 40.9735C40.1857 40.558 40.2854 40.1468 40.4867 39.7839C40.688 39.4209 40.9834 39.1197 41.3414 38.9123C41.3414 38.9123 42.1626 38.2888 43.8381 38.2737C45.7031 38.2555 47.1019 39.3179 47.3094 40.4771C47.3166 40.514 47.3155 40.5521 47.3062 40.5885C47.2969 40.625 47.2797 40.6589 47.2558 40.6879C47.2319 40.7168 47.202 40.7401 47.1681 40.756C47.1341 40.7719 47.0972 40.78 47.0598 40.7797H45.0865C45.0348 40.7803 44.9836 40.7691 44.9368 40.7471C44.8899 40.7251 44.8486 40.6928 44.8157 40.6526L44.7857 40.6163C44.6472 40.4754 44.48 40.3662 44.2958 40.2962C44.1115 40.2262 43.9143 40.197 43.7178 40.2107C42.7702 40.2107 42.7702 40.5921 42.7702 40.7192C42.7702 40.8463 42.8334 41.0854 43.3719 41.2852C43.903 41.4489 44.4447 41.5753 44.9932 41.6635C46.7379 42.0025 47.6193 42.8076 47.6193 44.0516C47.6399 44.5088 47.5394 44.9633 47.3279 45.3686C47.1165 45.7739 46.8018 46.1153 46.416 46.3579C45.6429 46.7942 44.7663 47.0108 43.8802 46.9844C42.9643 47.0259 42.0562 46.7988 41.2662 46.3306C40.9259 46.1087 40.6406 45.8114 40.4321 45.4615C40.2235 45.1116 40.0973 44.7184 40.063 44.3119C40.063 44.3119 40.063 44.2846 40.063 44.2695" fill="#3B3B3C"/>
</g>
<defs>
<clipPath id="clip0_7193_22305">
<rect width="48" height="48" fill="white"/>
</clipPath>
</defs>
</svg>
